<svg height="512" width="512" xmlns="http://www.w3.org/2000/svg" xmlns:xlink="http://www.w3.org/1999/xlink"><linearGradient id="b" gradientUnits="userSpaceOnUse" x1="74.981" x2="437.02" y1="437.019" y2="74.98"><stop offset="0" stop-color="#8d00db"/><stop offset="1" stop-color="#fc54ff"/></linearGradient><radialGradient id="c" cx="256.001" cy="256" gradientUnits="userSpaceOnUse" r="256"><stop offset="0" stop-color="#8d00db" stop-opacity=".8"/><stop offset="1" stop-color="#fc54ff" stop-opacity="0"/></radialGradient><linearGradient id="a"><stop offset="0" stop-color="#fc54ff"/><stop offset=".102" stop-color="#fd77ff"/><stop offset=".243" stop-color="#fda0ff"/><stop offset=".388" stop-color="#fec3ff"/><stop offset=".534" stop-color="#feddff"/><stop offset=".683" stop-color="#fff0ff"/><stop offset=".836" stop-color="#fffbff"/><stop offset="1" stop-color="#fff"/></linearGradient><linearGradient id="d" gradientUnits="userSpaceOnUse" x1="-74.649" x2="593.817" xlink:href="#a" y1="586.649" y2="-81.817"/><linearGradient id="e" gradientUnits="userSpaceOnUse" x1="-19.098" x2="524.995" xlink:href="#a" y1="635.549" y2="91.456"/><radialGradient id="f" cx="253.575" cy="161.476" gradientUnits="userSpaceOnUse" r="356.114"><stop offset="0" stop-color="#8d00db" stop-opacity=".8"/><stop offset=".05" stop-color="#a613e3" stop-opacity=".76"/><stop offset=".118" stop-color="#c127ec" stop-opacity=".706"/><stop offset=".197" stop-color="#d738f3" stop-opacity=".643"/><stop offset=".288" stop-color="#e844f8" stop-opacity=".57"/><stop offset=".401" stop-color="#f34dfc" stop-opacity=".479"/><stop offset=".56" stop-color="#fa53fe" stop-opacity=".352"/><stop offset="1" stop-color="#fc54ff" stop-opacity="0"/></radialGradient><linearGradient id="g" gradientUnits="userSpaceOnUse" x1="254.529" x2="254.529" y1="378.255" y2="-154.985"><stop offset="0" stop-color="#fc54ff" stop-opacity="0"/><stop offset=".155" stop-color="#f64ffd" stop-opacity=".124"/><stop offset=".373" stop-color="#e341f7" stop-opacity=".299"/><stop offset=".628" stop-color="#c52bed" stop-opacity=".502"/><stop offset=".909" stop-color="#9c0be0" stop-opacity=".727"/><stop offset="1" stop-color="#8d00db" stop-opacity=".8"/></linearGradient><linearGradient id="h" gradientUnits="userSpaceOnUse" x1="-179.203" x2="483.778" xlink:href="#a" y1="573.149" y2="-89.833"/><linearGradient id="i" gradientUnits="userSpaceOnUse" x1="-198.57" x2="445.14" xlink:href="#a" y1="690.456" y2="46.747"/><circle cx="256" cy="256" fill="url(#b)" r="256"/><circle cx="256" cy="256" fill="url(#c)" r="256"/><path d="M256 363.625c-59.767 0-120.376-.875-180.145-2.599l-.91-.026-.059-.908a1609.392 1609.392 0 010-208.184l.059-.908.91-.026c59.769-1.724 120.378-2.599 180.145-2.599s120.376.875 180.145 2.599l.91.026.059.908a1609.392 1609.392 0 010 208.184l-.059.908-.91.026A6276.985 6276.985 0 01256 363.625z" fill="url(#d)"/><path d="M431.262 348.819c1.815 1.32-161.43-111.162-162.167-111.797a22.986 22.986 0 00-13.096-4.084 22.911 22.911 0 00-13.087 4.084c-.745.635-163.99 113.117-162.187 111.797-3.796 2.615-6.118 7.061-5.78 12.182.552 8.277 7.782 15.219 16.055 15.479 110 3.361 220 3.361 330 0 8.273-.258 15.503-7.201 16.055-15.479.337-5.122-1.985-9.567-5.793-12.182z" fill="url(#e)"/><path d="M74.945 151c-4.594 70-4.594 140 0 210 .552 8.277 7.782 15.219 16.055 15.479 110 3.361 220 3.361 330 0 8.273-.258 15.503-7.201 16.055-15.479 4.594-70 4.594-140 0-210a6245.296 6245.296 0 00-362.11 0z" fill="url(#f)"/><path d="M74.945 151c-4.594 70-4.594 140 0 210 .552 8.277 7.782 15.219 16.055 15.479 9.751.298 19.502.57 29.254.815-8.273-.213-15.42-7.17-15.883-15.51a1940.56 1940.56 0 01-2.286-153.987c.17-6.527 8.09-10.089 12.9-5.78 39.302 35.179 80.273 71.439 120.616 107.64 5.44 4.871 12.578 7.843 20.401 7.843s14.961-2.971 20.394-7.843c.544-.652 158.852-141.539 156.716-140.093 2.947-2.68 4.692-6.614 4.42-11.064-.152-2.5-.311-5-.475-7.5a6245.365 6245.365 0 00-362.112 0z" fill="url(#g)"/><path d="M256 133c-55 0-110 .84-165 2.521-8.273.259-15.503 7.203-16.055 15.479-.338 5.121 1.984 9.567 5.792 12.181-1.815-1.32 161.43 111.162 162.167 111.797A22.979 22.979 0 00256 279.062c4.86 0 9.367-1.511 13.087-4.084.047-.062 76.057-52.54 75.909-52.41C315.043 192.818 284.995 162.792 256 133z" fill="url(#h)"/><path d="M421 135.521C366 133.84 311 133 256 133c-.176 49.327 39.708 89.274 88.997 89.569 43.03-29.658 86.391-59.463 86.277-59.387 3.796-2.615 6.118-7.061 5.78-12.182-.551-8.278-7.781-15.22-16.054-15.479z" fill="url(#i)"/></svg>